<?xml version="1.0" encoding="UTF-8" standalone="no"?>
<!-- Created with Inkscape (http://www.inkscape.org/) -->

<svg
   xmlns:dc="http://purl.org/dc/elements/1.1/"
   xmlns:cc="http://creativecommons.org/ns#"
   xmlns:rdf="http://www.w3.org/1999/02/22-rdf-syntax-ns#"
   xmlns:svg="http://www.w3.org/2000/svg"
   xmlns="http://www.w3.org/2000/svg"
   xmlns:sodipodi="http://sodipodi.sourceforge.net/DTD/sodipodi-0.dtd"
   xmlns:inkscape="http://www.inkscape.org/namespaces/inkscape"
   width="300"
   height="30"
   viewBox="0 0 300.00001 30"
   id="svg2"
   version="1.1"
   inkscape:version="0.91 r13725"
   sodipodi:docname="contact.svg">
  <defs
     id="defs4" />
  <sodipodi:namedview
     id="base"
     pagecolor="#ffffff"
     bordercolor="#666666"
     borderopacity="1.0"
     inkscape:pageopacity="0.0"
     inkscape:pageshadow="2"
     inkscape:zoom="1.4"
     inkscape:cx="200.62972"
     inkscape:cy="104.25959"
     inkscape:document-units="px"
     inkscape:current-layer="layer1"
     showgrid="false"
     units="px"
     inkscape:window-width="1920"
     inkscape:window-height="1050"
     inkscape:window-x="3840"
     inkscape:window-y="0"
     inkscape:window-maximized="1" />
  <metadata
     id="metadata7">
    <rdf:RDF>
      <cc:Work
         rdf:about="">
        <dc:format>image/svg+xml</dc:format>
        <dc:type
           rdf:resource="http://purl.org/dc/dcmitype/StillImage" />
        <dc:title></dc:title>
      </cc:Work>
    </rdf:RDF>
  </metadata>
  <g
     inkscape:label="Layer 1"
     inkscape:groupmode="layer"
     id="layer1"
     transform="translate(0,-1022.3622)">
    <g
       transform="translate(-374.28572,620.71428)"
       style="font-style:normal;font-variant:normal;font-weight:normal;font-stretch:normal;font-size:100px;line-height:125%;font-family:'Ubuntu Mono';-inkscape-font-specification:'Ubuntu Mono';letter-spacing:0px;word-spacing:0px;fill:#ffffff;fill-opacity:1;stroke:none;stroke-width:1px;stroke-linecap:butt;stroke-linejoin:miter;stroke-opacity:1"
       id="flowRoot3336">
      <path
         d="m 385.65766,409.01 q -0.715,0 -1.2375,-0.495 -0.5225,-0.495 -0.5225,-1.3475 0,-0.8525 0.5225,-1.3475 0.5225,-0.495 1.2375,-0.495 0.7425,0 1.2375,0.495 0.5225,0.495 0.5225,1.3475 0,0.8525 -0.5225,1.3475 -0.495,0.495 -1.2375,0.495 z m -0.5775,3.8775 -3.685,0 0,-1.8975 5.94,0 0,7.8375 q 0,1.8975 0.5225,2.5575 0.5225,0.6325 1.5675,0.6325 0.7975,0 1.4575,-0.1925 0.6875,-0.1925 1.0725,-0.4125 l 0.33,1.925 q -0.165,0.0825 -0.4675,0.22 -0.3025,0.11 -0.715,0.22 -0.385,0.11 -0.88,0.1925 -0.4675,0.0825 -0.99,0.0825 -1.21,0 -2.0075,-0.33 -0.7975,-0.33 -1.2925,-0.99 -0.4675,-0.66 -0.66,-1.6225 -0.1925,-0.99 -0.1925,-2.2825 l 0,-5.94 z"
         style="font-style:normal;font-variant:normal;font-weight:normal;font-stretch:normal;font-size:27.5px;font-family:'Ubuntu Mono';-inkscape-font-specification:'Ubuntu Mono';text-align:center;text-anchor:middle;fill:#ffffff"
         id="path3345"
         inkscape:connector-curvature="0" />
      <path
         d="m 395.61266,411.3475 q 1.2375,-0.3025 2.4475,-0.4675 1.2375,-0.165 2.31,-0.165 2.5575,0 3.85,1.32 1.32,1.32 1.32,4.235 l 0,7.48 -2.255,0 0,-7.0675 q 0,-1.2375 -0.22,-2.0075 -0.22,-0.77 -0.6325,-1.1825 -0.385,-0.44 -0.9625,-0.605 -0.55,-0.165 -1.21,-0.165 -0.55,0 -1.1825,0.0825 -0.605,0.055 -1.1825,0.165 l 0,10.78 -2.2825,0 0,-12.4025 z"
         style="font-style:normal;font-variant:normal;font-weight:normal;font-stretch:normal;font-size:27.5px;font-family:'Ubuntu Mono';-inkscape-font-specification:'Ubuntu Mono';text-align:center;text-anchor:middle;fill:#ffffff"
         id="path3347"
         inkscape:connector-curvature="0" />
      <path
         d="m 411.83766,423.75 0,-10.8625 -2.695,0 0,-1.8975 2.695,0 0,-1.155 q 0,-1.485 0.4125,-2.4475 0.4125,-0.99 1.0725,-1.595 0.6875,-0.605 1.5675,-0.8525 0.9075,-0.2475 1.8975,-0.2475 0.99,0 1.98,0.22 1.0175,0.22 1.8975,0.5225 l -0.4125,1.9525 q -0.605,-0.3025 -1.5125,-0.5225 -0.9075,-0.22 -1.8425,-0.22 -0.5775,0 -1.1,0.165 -0.495,0.1375 -0.88,0.5225 -0.385,0.3575 -0.605,0.99 -0.22,0.605 -0.22,1.54 l 0,1.1275 5.1425,0 0,1.8975 -5.1425,0 0,10.8625 -2.255,0 z"
         style="font-style:normal;font-variant:normal;font-weight:normal;font-stretch:normal;font-size:27.5px;font-family:'Ubuntu Mono';-inkscape-font-specification:'Ubuntu Mono';text-align:center;text-anchor:middle;fill:#ffffff"
         id="path3349"
         inkscape:connector-curvature="0" />
      <path
         d="m 433.81016,417.37 q 0,1.5125 -0.44,2.75 -0.4125,1.21 -1.1825,2.09 -0.77,0.88 -1.8425,1.375 -1.0725,0.4675 -2.3375,0.4675 -1.2375,0 -2.31,-0.4675 -1.045,-0.495 -1.815,-1.375 -0.77,-0.88 -1.21,-2.09 -0.4125,-1.2375 -0.4125,-2.75 0,-1.5125 0.4125,-2.75 0.44,-1.2375 1.21,-2.09 0.77,-0.88 1.815,-1.3475 1.0725,-0.495 2.31,-0.495 1.265,0 2.3375,0.495 1.0725,0.4675 1.8425,1.3475 0.77,0.8525 1.1825,2.09 0.44,1.2375 0.44,2.75 z m -2.3375,0 q 0,-2.1725 -0.935,-3.41 -0.935,-1.265 -2.53,-1.265 -1.5675,0 -2.5025,1.265 -0.9075,1.2375 -0.9075,3.41 0,2.145 0.9075,3.41 0.935,1.2375 2.5025,1.2375 1.595,0 2.53,-1.2375 0.935,-1.265 0.935,-3.41 z"
         style="font-style:normal;font-variant:normal;font-weight:normal;font-stretch:normal;font-size:27.5px;font-family:'Ubuntu Mono';-inkscape-font-specification:'Ubuntu Mono';text-align:center;text-anchor:middle;fill:#ffffff"
         id="path3351"
         inkscape:connector-curvature="0" />
      <path
         d="m 447.78016,422.0175 q -0.825,0.33 -1.6775,0.4675 -0.8525,0.11 -1.5675,0.11 -0.9625,0 -1.7875,-0.3025 -0.825,-0.33 -1.4575,-0.99 -0.605,-0.66 -0.9625,-1.6775 -0.33,-1.045 -0.33,-2.475 0,-2.5575 1.32,-3.8775 1.32,-1.3475 3.4375,-1.3475 0.22,0 0.4125,0.0275 0.22,0 0.44,0.0275 0,-1.7325 -0.715,-2.75 -0.715,-1.0175 -2.2825,-1.0175 -0.9625,0 -1.76,0.4675 -0.7975,0.4675 -1.375,1.5125 -0.5775,1.0175 -0.9075,2.64 -0.33,1.6225 -0.33,3.9325 0,1.7325 0.33,3.355 0.33,1.595 1.0175,2.805 0.715,1.21 1.7875,1.925 1.1,0.7425 2.6125,0.7425 1.1,0 2.2825,-0.3575 l 0.22,1.8425 q -1.4575,0.385 -2.695,0.385 -2.0075,0 -3.4925,-0.9075 -1.4575,-0.88 -2.42,-2.3375 -0.935,-1.4575 -1.4025,-3.3275 -0.4675,-1.87 -0.4675,-3.8225 0,-2.8325 0.495,-4.8675 0.5225,-2.035 1.4025,-3.3275 0.9075,-1.2925 2.09,-1.8975 1.1825,-0.6325 2.5575,-0.6325 2.42,0 3.8225,1.65 1.4025,1.6225 1.4025,4.5375 l 0,9.4875 z m -5.5825,-4.8675 q 0,0.55 0.055,1.1825 0.0825,0.6325 0.33,1.1825 0.2475,0.5225 0.6875,0.9075 0.4675,0.3575 1.265,0.3575 0.22,0 0.495,-0.0275 0.275,-0.0275 0.5775,-0.11 l 0,-6.7375 q -0.2475,-0.0825 -0.495,-0.11 -0.22,-0.0275 -0.44,-0.0275 -1.1825,0 -1.8425,0.935 -0.6325,0.9075 -0.6325,2.4475 z"
         style="font-style:normal;font-variant:normal;font-weight:normal;font-stretch:normal;font-size:27.5px;font-family:'Ubuntu Mono';-inkscape-font-specification:'Ubuntu Mono';text-align:center;text-anchor:middle;fill:#ffffff"
         id="path3353"
         inkscape:connector-curvature="0" />
      <path
         d="m 454.40766,409.01 q -0.715,0 -1.2375,-0.495 -0.5225,-0.495 -0.5225,-1.3475 0,-0.8525 0.5225,-1.3475 0.5225,-0.495 1.2375,-0.495 0.7425,0 1.2375,0.495 0.5225,0.495 0.5225,1.3475 0,0.8525 -0.5225,1.3475 -0.495,0.495 -1.2375,0.495 z m -0.5775,3.8775 -3.685,0 0,-1.8975 5.94,0 0,7.8375 q 0,1.8975 0.5225,2.5575 0.5225,0.6325 1.5675,0.6325 0.7975,0 1.4575,-0.1925 0.6875,-0.1925 1.0725,-0.4125 l 0.33,1.925 q -0.165,0.0825 -0.4675,0.22 -0.3025,0.11 -0.715,0.22 -0.385,0.11 -0.88,0.1925 -0.4675,0.0825 -0.99,0.0825 -1.21,0 -2.0075,-0.33 -0.7975,-0.33 -1.2925,-0.99 -0.4675,-0.66 -0.66,-1.6225 -0.1925,-0.99 -0.1925,-2.2825 l 0,-5.94 z"
         style="font-style:normal;font-variant:normal;font-weight:normal;font-stretch:normal;font-size:27.5px;font-family:'Ubuntu Mono';-inkscape-font-specification:'Ubuntu Mono';text-align:center;text-anchor:middle;fill:#ffffff"
         id="path3355"
         inkscape:connector-curvature="0" />
      <path
         d="m 463.53766,411.3475 q 1.65,-0.6325 3.1075,-0.6325 0.7975,0 1.485,0.2475 0.715,0.22 1.21,0.715 1.1825,-0.9625 2.53,-0.9625 0.66,0 1.2375,0.2475 0.605,0.2475 1.045,0.7425 0.4675,0.495 0.7425,1.2375 0.275,0.7425 0.275,1.7325 l 0,9.075 -2.0625,0 0,-9.13 q 0,-0.99 -0.44,-1.5125 -0.44,-0.5225 -1.1,-0.5225 -0.33,0 -0.6875,0.165 -0.3575,0.165 -0.66,0.5225 0.165,0.6325 0.165,1.4025 l 0,4.1525 -2.0625,0 0,-4.18 q 0,-0.9625 -0.3025,-1.5125 -0.3025,-0.55 -1.1825,-0.55 -0.55,0 -1.2375,0.2475 l 0,10.9175 -2.0625,0 0,-12.4025 z"
         style="font-style:normal;font-variant:normal;font-weight:normal;font-stretch:normal;font-size:27.5px;font-family:'Ubuntu Mono';-inkscape-font-specification:'Ubuntu Mono';text-align:center;text-anchor:middle;fill:#ffffff"
         id="path3357"
         inkscape:connector-curvature="0" />
      <path
         d="m 483.17266,422.1275 q 0.8525,0 1.5125,-0.055 0.6875,-0.055 1.1275,-0.1375 l 0,-3.795 q -0.44,-0.1375 -1.0725,-0.22 -0.605,-0.0825 -1.2925,-0.0825 -0.6325,0 -1.2375,0.11 -0.605,0.0825 -1.0725,0.33 -0.4675,0.2475 -0.77,0.66 -0.3025,0.385 -0.3025,0.99 0,1.2375 0.825,1.7325 0.8525,0.4675 2.2825,0.4675 z m -0.22,-11.44 q 1.43,0 2.3925,0.3575 0.99,0.3575 1.595,0.99 0.605,0.6325 0.8525,1.54 0.2475,0.9075 0.2475,1.98 l 0,7.975 q -0.7975,0.1375 -2.1175,0.33 -1.2925,0.1925 -2.6675,0.1925 -1.045,0 -2.035,-0.1925 -0.99,-0.165 -1.76,-0.605 -0.77,-0.4675 -1.2375,-1.265 -0.4675,-0.7975 -0.4675,-2.035 0,-1.1 0.4675,-1.8425 0.495,-0.77 1.2375,-1.2375 0.77,-0.4675 1.7325,-0.66 0.99,-0.22 1.98,-0.22 1.3475,0 2.64,0.3025 l 0,-0.6325 q 0,-0.5775 -0.1375,-1.1 -0.11,-0.55 -0.4675,-0.99 -0.33,-0.44 -0.935,-0.6875 -0.5775,-0.275 -1.5125,-0.275 -1.1825,0 -2.0625,0.165 -0.88,0.165 -1.3475,0.33 l -0.275,-1.87 q 0.4675,-0.22 1.54,-0.385 1.1,-0.165 2.3375,-0.165 z"
         style="font-style:normal;font-variant:normal;font-weight:normal;font-stretch:normal;font-size:27.5px;font-family:'Ubuntu Mono';-inkscape-font-specification:'Ubuntu Mono';text-align:center;text-anchor:middle;fill:#ffffff"
         id="path3359"
         inkscape:connector-curvature="0" />
      <path
         d="m 499.42516,422.5675 q -0.385,0.22 -1.1825,0.4675 -0.7975,0.2475 -1.8425,0.2475 -1.1275,0 -2.1175,-0.3575 -0.9625,-0.385 -1.705,-1.1275 -0.715,-0.77 -1.155,-1.925 -0.4125,-1.1825 -0.4125,-2.7775 0,-1.4025 0.385,-2.5575 0.4125,-1.1825 1.155,-2.035 0.77,-0.8525 1.87,-1.32 1.1,-0.495 2.5025,-0.495 1.65,0 2.805,0.2475 1.1825,0.22 1.98,0.44 l 0,11.385 q 0,2.97 -1.5125,4.29 -1.485,1.32 -4.51,1.32 -1.2375,0 -2.255,-0.1925 -0.99,-0.1925 -1.76,-0.4675 l 0.4125,-2.0075 q 0.715,0.3025 1.6225,0.495 0.935,0.1925 2.035,0.1925 1.98,0 2.8325,-0.7975 0.8525,-0.7975 0.8525,-2.585 l 0,-0.44 z m 0,-9.57 q -0.33,-0.11 -0.9075,-0.1925 -0.5775,-0.11 -1.5675,-0.11 -1.76,0 -2.695,1.21 -0.9075,1.21 -0.9075,3.2175 0,1.1 0.2475,1.8975 0.275,0.77 0.715,1.2925 0.4675,0.495 1.045,0.7425 0.5775,0.22 1.2375,0.22 0.8525,0 1.595,-0.2475 0.77,-0.2475 1.2375,-0.5775 l 0,-7.4525 z"
         style="font-style:normal;font-variant:normal;font-weight:normal;font-stretch:normal;font-size:27.5px;font-family:'Ubuntu Mono';-inkscape-font-specification:'Ubuntu Mono';text-align:center;text-anchor:middle;fill:#ffffff"
         id="path3361"
         inkscape:connector-curvature="0" />
      <path
         d="m 509.40766,409.01 q -0.715,0 -1.2375,-0.495 -0.5225,-0.495 -0.5225,-1.3475 0,-0.8525 0.5225,-1.3475 0.5225,-0.495 1.2375,-0.495 0.7425,0 1.2375,0.495 0.5225,0.495 0.5225,1.3475 0,0.8525 -0.5225,1.3475 -0.495,0.495 -1.2375,0.495 z m -0.5775,3.8775 -3.685,0 0,-1.8975 5.94,0 0,7.8375 q 0,1.8975 0.5225,2.5575 0.5225,0.6325 1.5675,0.6325 0.7975,0 1.4575,-0.1925 0.6875,-0.1925 1.0725,-0.4125 l 0.33,1.925 q -0.165,0.0825 -0.4675,0.22 -0.3025,0.11 -0.715,0.22 -0.385,0.11 -0.88,0.1925 -0.4675,0.0825 -0.99,0.0825 -1.21,0 -2.0075,-0.33 -0.7975,-0.33 -1.2925,-0.99 -0.4675,-0.66 -0.66,-1.6225 -0.1925,-0.99 -0.1925,-2.2825 l 0,-5.94 z"
         style="font-style:normal;font-variant:normal;font-weight:normal;font-stretch:normal;font-size:27.5px;font-family:'Ubuntu Mono';-inkscape-font-specification:'Ubuntu Mono';text-align:center;text-anchor:middle;fill:#ffffff"
         id="path3363"
         inkscape:connector-curvature="0" />
      <path
         d="m 519.36266,411.3475 q 1.2375,-0.3025 2.4475,-0.4675 1.2375,-0.165 2.31,-0.165 2.5575,0 3.85,1.32 1.32,1.32 1.32,4.235 l 0,7.48 -2.255,0 0,-7.0675 q 0,-1.2375 -0.22,-2.0075 -0.22,-0.77 -0.6325,-1.1825 -0.385,-0.44 -0.9625,-0.605 -0.55,-0.165 -1.21,-0.165 -0.55,0 -1.1825,0.0825 -0.605,0.055 -1.1825,0.165 l 0,10.78 -2.2825,0 0,-12.4025 z"
         style="font-style:normal;font-variant:normal;font-weight:normal;font-stretch:normal;font-size:27.5px;font-family:'Ubuntu Mono';-inkscape-font-specification:'Ubuntu Mono';text-align:center;text-anchor:middle;fill:#ffffff"
         id="path3365"
         inkscape:connector-curvature="0" />
      <path
         d="m 538.28266,410.6875 q 2.585,0 3.9875,1.6225 1.4025,1.595 1.4025,4.8675 l 0,0.7975 -9.13,0 q 0.1375,1.98 1.2925,3.025 1.1825,1.0175 3.3,1.0175 1.21,0 2.0625,-0.1925 0.8525,-0.1925 1.2925,-0.4125 l 0.3025,1.925 q -0.4125,0.22 -1.485,0.4675 -1.0725,0.2475 -2.42,0.2475 -1.65,0 -2.915,-0.495 -1.2375,-0.5225 -2.0625,-1.4025 -0.825,-0.88 -1.2375,-2.09 -0.4125,-1.2375 -0.4125,-2.6675 0,-1.705 0.5225,-2.97 0.5225,-1.265 1.375,-2.09 0.8525,-0.825 1.925,-1.2375 1.0725,-0.4125 2.2,-0.4125 z m 3.08,5.445 q 0,-1.6225 -0.8525,-2.5575 -0.8525,-0.9625 -2.255,-0.9625 -0.7975,0 -1.4575,0.3025 -0.6325,0.3025 -1.1,0.7975 -0.4675,0.495 -0.7425,1.1275 -0.275,0.6325 -0.3575,1.2925 l 6.765,0 z"
         style="font-style:normal;font-variant:normal;font-weight:normal;font-stretch:normal;font-size:27.5px;font-family:'Ubuntu Mono';-inkscape-font-specification:'Ubuntu Mono';text-align:center;text-anchor:middle;fill:#ffffff"
         id="path3367"
         inkscape:connector-curvature="0" />
      <path
         d="m 549.14516,411.4575 q 0.4125,-0.2475 1.1825,-0.495 0.7975,-0.275 1.76,-0.275 1.2925,0 2.31,0.495 1.0175,0.495 1.705,1.375 0.715,0.88 1.0725,2.1175 0.385,1.21 0.385,2.695 0,1.54 -0.44,2.7775 -0.44,1.2375 -1.2375,2.1175 -0.7975,0.8525 -1.925,1.32 -1.1275,0.4675 -2.5025,0.4675 -1.5125,0 -2.695,-0.22 -1.1825,-0.22 -1.8975,-0.44 l 0,-18.315 2.2825,-0.385 0,6.765 z m 0,10.3125 q 0.5225,0.1375 1.045,0.22 0.5225,0.055 0.99,0.055 1.8975,0 2.97,-1.155 1.0725,-1.1825 1.0725,-3.52 0,-0.99 -0.1925,-1.8425 -0.1925,-0.88 -0.605,-1.485 -0.4125,-0.6325 -1.0725,-0.99 -0.6325,-0.3575 -1.54,-0.3575 -0.7975,0 -1.54,0.33 -0.7425,0.3025 -1.1275,0.66 l 0,8.085 z"
         style="font-style:normal;font-variant:normal;font-weight:normal;font-stretch:normal;font-size:27.5px;font-family:'Ubuntu Mono';-inkscape-font-specification:'Ubuntu Mono';text-align:center;text-anchor:middle;fill:#ffffff"
         id="path3369"
         inkscape:connector-curvature="0" />
      <path
         d="m 564.40766,409.01 q -0.715,0 -1.2375,-0.495 -0.5225,-0.495 -0.5225,-1.3475 0,-0.8525 0.5225,-1.3475 0.5225,-0.495 1.2375,-0.495 0.7425,0 1.2375,0.495 0.5225,0.495 0.5225,1.3475 0,0.8525 -0.5225,1.3475 -0.495,0.495 -1.2375,0.495 z m -0.5775,3.8775 -3.685,0 0,-1.8975 5.94,0 0,7.8375 q 0,1.8975 0.5225,2.5575 0.5225,0.6325 1.5675,0.6325 0.7975,0 1.4575,-0.1925 0.6875,-0.1925 1.0725,-0.4125 l 0.33,1.925 q -0.165,0.0825 -0.4675,0.22 -0.3025,0.11 -0.715,0.22 -0.385,0.11 -0.88,0.1925 -0.4675,0.0825 -0.99,0.0825 -1.21,0 -2.0075,-0.33 -0.7975,-0.33 -1.2925,-0.99 -0.4675,-0.66 -0.66,-1.6225 -0.1925,-0.99 -0.1925,-2.2825 l 0,-5.94 z"
         style="font-style:normal;font-variant:normal;font-weight:normal;font-stretch:normal;font-size:27.5px;font-family:'Ubuntu Mono';-inkscape-font-specification:'Ubuntu Mono';text-align:center;text-anchor:middle;fill:#ffffff"
         id="path3371"
         inkscape:connector-curvature="0" />
      <path
         d="m 574.36266,411.3475 q 1.2375,-0.3025 2.4475,-0.4675 1.2375,-0.165 2.31,-0.165 2.5575,0 3.85,1.32 1.32,1.32 1.32,4.235 l 0,7.48 -2.255,0 0,-7.0675 q 0,-1.2375 -0.22,-2.0075 -0.22,-0.77 -0.6325,-1.1825 -0.385,-0.44 -0.9625,-0.605 -0.55,-0.165 -1.21,-0.165 -0.55,0 -1.1825,0.0825 -0.605,0.055 -1.1825,0.165 l 0,10.78 -2.2825,0 0,-12.4025 z"
         style="font-style:normal;font-variant:normal;font-weight:normal;font-stretch:normal;font-size:27.5px;font-family:'Ubuntu Mono';-inkscape-font-specification:'Ubuntu Mono';text-align:center;text-anchor:middle;fill:#ffffff"
         id="path3373"
         inkscape:connector-curvature="0" />
      <path
         d="m 593.17266,422.1275 q 0.8525,0 1.5125,-0.055 0.6875,-0.055 1.1275,-0.1375 l 0,-3.795 q -0.44,-0.1375 -1.0725,-0.22 -0.605,-0.0825 -1.2925,-0.0825 -0.6325,0 -1.2375,0.11 -0.605,0.0825 -1.0725,0.33 -0.4675,0.2475 -0.77,0.66 -0.3025,0.385 -0.3025,0.99 0,1.2375 0.825,1.7325 0.8525,0.4675 2.2825,0.4675 z m -0.22,-11.44 q 1.43,0 2.3925,0.3575 0.99,0.3575 1.595,0.99 0.605,0.6325 0.8525,1.54 0.2475,0.9075 0.2475,1.98 l 0,7.975 q -0.7975,0.1375 -2.1175,0.33 -1.2925,0.1925 -2.6675,0.1925 -1.045,0 -2.035,-0.1925 -0.99,-0.165 -1.76,-0.605 -0.77,-0.4675 -1.2375,-1.265 -0.4675,-0.7975 -0.4675,-2.035 0,-1.1 0.4675,-1.8425 0.495,-0.77 1.2375,-1.2375 0.77,-0.4675 1.7325,-0.66 0.99,-0.22 1.98,-0.22 1.3475,0 2.64,0.3025 l 0,-0.6325 q 0,-0.5775 -0.1375,-1.1 -0.11,-0.55 -0.4675,-0.99 -0.33,-0.44 -0.935,-0.6875 -0.5775,-0.275 -1.5125,-0.275 -1.1825,0 -2.0625,0.165 -0.88,0.165 -1.3475,0.33 l -0.275,-1.87 q 0.4675,-0.22 1.54,-0.385 1.1,-0.165 2.3375,-0.165 z"
         style="font-style:normal;font-variant:normal;font-weight:normal;font-stretch:normal;font-size:27.5px;font-family:'Ubuntu Mono';-inkscape-font-specification:'Ubuntu Mono';text-align:center;text-anchor:middle;fill:#ffffff"
         id="path3375"
         inkscape:connector-curvature="0" />
      <path
         d="m 602.85266,423.75 0,-12.0725 q 2.805,-0.9625 5.665,-0.9625 0.88,0 1.6775,0.0825 0.7975,0.055 1.76,0.275 l -0.4125,2.0075 q -0.88,-0.2475 -1.5675,-0.3025 -0.66,-0.0825 -1.4575,-0.0825 -1.6775,0 -3.41,0.4675 l 0,10.5875 -2.255,0 z"
         style="font-style:normal;font-variant:normal;font-weight:normal;font-stretch:normal;font-size:27.5px;font-family:'Ubuntu Mono';-inkscape-font-specification:'Ubuntu Mono';text-align:center;text-anchor:middle;fill:#ffffff"
         id="path3377"
         inkscape:connector-curvature="0" />
      <path
         d="m 615.06266,426.1425 q 0.2475,0.1375 0.6875,0.22 0.4675,0.0825 0.8525,0.0825 1.3475,0 2.09,-0.605 0.77,-0.5775 1.4025,-1.925 -1.54,-2.915 -2.8875,-6.2425 -1.3475,-3.355 -2.2275,-6.6825 l 2.475,0 q 0.275,1.1 0.6325,2.3925 0.385,1.265 0.8525,2.6125 0.4675,1.3475 0.99,2.7225 0.55,1.3475 1.155,2.585 0.44,-1.265 0.825,-2.5025 0.385,-1.2375 0.715,-2.475 0.33,-1.265 0.66,-2.5575 0.33,-1.32 0.6875,-2.7775 l 2.365,0 q -0.88,3.575 -1.98,6.93 -1.0725,3.355 -2.31,6.215 -0.4675,1.1 -1.0175,1.8975 -0.5225,0.7975 -1.155,1.32 -0.6325,0.5225 -1.43,0.77 -0.7975,0.2475 -1.815,0.2475 -0.5225,0 -1.155,-0.1375 -0.605,-0.1375 -0.825,-0.2475 l 0.4125,-1.8425 z"
         style="font-style:normal;font-variant:normal;font-weight:normal;font-stretch:normal;font-size:27.5px;font-family:'Ubuntu Mono';-inkscape-font-specification:'Ubuntu Mono';text-align:center;text-anchor:middle;fill:#ffffff"
         id="path3379"
         inkscape:connector-curvature="0" />
      <path
         d="m 636.32016,421.99 q 0,0.825 -0.55,1.4575 -0.55,0.6325 -1.4575,0.6325 -0.935,0 -1.485,-0.6325 -0.55,-0.6325 -0.55,-1.4575 0,-0.8525 0.55,-1.485 0.55,-0.6325 1.485,-0.6325 0.9075,0 1.4575,0.6325 0.55,0.6325 0.55,1.485 z"
         style="font-style:normal;font-variant:normal;font-weight:normal;font-stretch:normal;font-size:27.5px;font-family:'Ubuntu Mono';-inkscape-font-specification:'Ubuntu Mono';text-align:center;text-anchor:middle;fill:#ffffff"
         id="path3381"
         inkscape:connector-curvature="0" />
      <path
         d="m 646.90766,409.01 q -0.715,0 -1.2375,-0.495 -0.5225,-0.495 -0.5225,-1.3475 0,-0.8525 0.5225,-1.3475 0.5225,-0.495 1.2375,-0.495 0.7425,0 1.2375,0.495 0.5225,0.495 0.5225,1.3475 0,0.8525 -0.5225,1.3475 -0.495,0.495 -1.2375,0.495 z m -0.5775,3.8775 -3.685,0 0,-1.8975 5.94,0 0,7.8375 q 0,1.8975 0.5225,2.5575 0.5225,0.6325 1.5675,0.6325 0.7975,0 1.4575,-0.1925 0.6875,-0.1925 1.0725,-0.4125 l 0.33,1.925 q -0.165,0.0825 -0.4675,0.22 -0.3025,0.11 -0.715,0.22 -0.385,0.11 -0.88,0.1925 -0.4675,0.0825 -0.99,0.0825 -1.21,0 -2.0075,-0.33 -0.7975,-0.33 -1.2925,-0.99 -0.4675,-0.66 -0.66,-1.6225 -0.1925,-0.99 -0.1925,-2.2825 l 0,-5.94 z"
         style="font-style:normal;font-variant:normal;font-weight:normal;font-stretch:normal;font-size:27.5px;font-family:'Ubuntu Mono';-inkscape-font-specification:'Ubuntu Mono';text-align:center;text-anchor:middle;fill:#ffffff"
         id="path3383"
         inkscape:connector-curvature="0" />
      <path
         d="m 667.56016,417.37 q 0,1.5125 -0.44,2.75 -0.4125,1.21 -1.1825,2.09 -0.77,0.88 -1.8425,1.375 -1.0725,0.4675 -2.3375,0.4675 -1.2375,0 -2.31,-0.4675 -1.045,-0.495 -1.815,-1.375 -0.77,-0.88 -1.21,-2.09 -0.4125,-1.2375 -0.4125,-2.75 0,-1.5125 0.4125,-2.75 0.44,-1.2375 1.21,-2.09 0.77,-0.88 1.815,-1.3475 1.0725,-0.495 2.31,-0.495 1.265,0 2.3375,0.495 1.0725,0.4675 1.8425,1.3475 0.77,0.8525 1.1825,2.09 0.44,1.2375 0.44,2.75 z m -2.3375,0 q 0,-2.1725 -0.935,-3.41 -0.935,-1.265 -2.53,-1.265 -1.5675,0 -2.5025,1.265 -0.9075,1.2375 -0.9075,3.41 0,2.145 0.9075,3.41 0.935,1.2375 2.5025,1.2375 1.595,0 2.53,-1.2375 0.935,-1.265 0.935,-3.41 z"
         style="font-style:normal;font-variant:normal;font-weight:normal;font-stretch:normal;font-size:27.5px;font-family:'Ubuntu Mono';-inkscape-font-specification:'Ubuntu Mono';text-align:center;text-anchor:middle;fill:#ffffff"
         id="path3385"
         inkscape:connector-curvature="0" />
    </g>
  </g>
</svg>
