<?xml version="1.0" encoding="UTF-8" standalone="no"?>
<!-- Created with Inkscape (http://www.inkscape.org/) -->

<svg
   xmlns:dc="http://purl.org/dc/elements/1.1/"
   xmlns:cc="http://creativecommons.org/ns#"
   xmlns:rdf="http://www.w3.org/1999/02/22-rdf-syntax-ns#"
   xmlns:svg="http://www.w3.org/2000/svg"
   xmlns="http://www.w3.org/2000/svg"
   xmlns:sodipodi="http://sodipodi.sourceforge.net/DTD/sodipodi-0.dtd"
   xmlns:inkscape="http://www.inkscape.org/namespaces/inkscape"
   width="512"
   height="512"
   id="svg2"
   version="1.1"
   inkscape:version="0.48.4 r9939"
   sodipodi:docname="socketizer.svg"
   inkscape:export-filename="/home/stef/Pictures/socketizer.png"
   inkscape:export-xdpi="90"
   inkscape:export-ydpi="90">
  <defs
     id="defs4">
    <clipPath
       clipPathUnits="userSpaceOnUse"
       id="clipPath3014">
      <rect
         style="fill:#000000;fill-opacity:1;fill-rule:nonzero;stroke:none"
         id="rect3016"
         width="267.69043"
         height="247.48738"
         x="-295.40607"
         y="845.77869"
         transform="matrix(0.88716566,-0.46145106,0.46145106,0.88716566,0,0)"
         rx="3.8772714" />
    </clipPath>
    <clipPath
       clipPathUnits="userSpaceOnUse"
       id="clipPath3020">
      <rect
         style="fill:#000000;fill-opacity:1;fill-rule:nonzero;stroke:none"
         id="rect3022"
         width="222.14282"
         height="180.00002"
         x="-294.94339"
         y="638.77631"
         transform="matrix(0.82826014,-0.56034377,0.56034377,0.82826014,0,0)"
         rx="3.8772714" />
    </clipPath>
    <clipPath
       clipPathUnits="userSpaceOnUse"
       id="clipPath3034">
      <rect
         style="fill:#000000;fill-opacity:1;fill-rule:nonzero;stroke:none"
         id="rect3036"
         width="324.28571"
         height="207.14285"
         x="-255.3391"
         y="627.15649"
         transform="matrix(0.88549978,-0.4646398,0.4646398,0.88549978,0,0)"
         rx="3.8772714" />
    </clipPath>
    <clipPath
       clipPathUnits="userSpaceOnUse"
       id="clipPath3087">
      <rect
         style="fill:#ff0000;fill-opacity:1;fill-rule:nonzero;stroke:none"
         id="rect3089"
         width="277.14285"
         height="225.71428"
         x="-255.4035"
         y="593.98016"
         rx="1.5062697"
         transform="matrix(0.88674406,-0.46226072,0.46226072,0.88674406,0,0)" />
    </clipPath>
    <clipPath
       clipPathUnits="userSpaceOnUse"
       id="clipPath3875">
      <rect
         style="fill:#003049;fill-opacity:1;fill-rule:nonzero;stroke:none"
         id="rect3877"
         width="210.33871"
         height="205.29752"
         x="-243.1398"
         y="580.30829"
         transform="matrix(0.88818018,-0.45949535,0.51034381,0.85997046,0,0)"
         rx="1.2636968" />
    </clipPath>
    <clipPath
       clipPathUnits="userSpaceOnUse"
       id="clipPath3998">
      <rect
         style="fill:#ffffff;fill-opacity:1;fill-rule:nonzero;stroke:#003049;stroke-width:1.5;stroke-linecap:butt;stroke-linejoin:round;stroke-miterlimit:4;stroke-opacity:1;stroke-dasharray:none"
         id="rect4000"
         width="415"
         height="216.42857"
         x="-338.49173"
         y="568.96173"
         transform="matrix(0.88600609,-0.46367361,0.46367361,0.88600609,0,0)"
         rx="1.2636968" />
    </clipPath>
  </defs>
  <sodipodi:namedview
     id="base"
     pagecolor="#ffffff"
     bordercolor="#666666"
     borderopacity="1.0"
     inkscape:pageopacity="0.0"
     inkscape:pageshadow="2"
     inkscape:zoom="1.4"
     inkscape:cx="148.80537"
     inkscape:cy="290.59313"
     inkscape:document-units="px"
     inkscape:current-layer="g2998"
     showgrid="false"
     inkscape:window-width="1920"
     inkscape:window-height="1020"
     inkscape:window-x="1920"
     inkscape:window-y="0"
     inkscape:window-maximized="1" />
  <metadata
     id="metadata7">
    <rdf:RDF>
      <cc:Work
         rdf:about="">
        <dc:format>image/svg+xml</dc:format>
        <dc:type
           rdf:resource="http://purl.org/dc/dcmitype/StillImage" />
        <dc:title></dc:title>
      </cc:Work>
    </rdf:RDF>
  </metadata>
  <g
     style="display:none"
     inkscape:label="Layer 1 copy copy"
     inkscape:groupmode="layer"
     id="g3052"
     transform="translate(0,-540.36218)"
     sodipodi:insensitive="true">
    <g
       style="font-size:100px;font-style:normal;font-variant:normal;font-weight:normal;font-stretch:normal;line-height:125%;letter-spacing:0px;word-spacing:0px;fill:#000000;fill-opacity:1;stroke:none;font-family:Ubuntu Mono;-inkscape-font-specification:Ubuntu Mono"
       id="g3054">
      <path
         inkscape:connector-curvature="0"
         d="m 248.42857,917.64789 c 20.99987,3e-5 36.99985,-3.99997 48,-12 10.99983,-7.99995 16.49982,-19.99994 16.5,-36 -1.8e-4,-9.66658 -2.00018,-17.83324 -6,-24.5 -4.00017,-6.99989 -9.3335,-12.99989 -16,-18 -6.66682,-5.33321 -14.16681,-9.83321 -22.5,-13.5 -8.33346,-3.99986 -16.83345,-7.66653 -25.5,-11 -10.0001,-3.99985 -19.66675,-8.49985 -29,-13.5 -9.00007,-4.99984 -17.16673,-10.83317 -24.5,-17.5 -7.00005,-6.66649 -12.66671,-14.49981 -17,-23.5 -4.00003,-8.99979 -6.00003,-19.66645 -6,-32 -3e-5,-26.99974 8.49996,-47.99972 25.5,-63 16.99993,-15.33303 40.66657,-22.99969 71,-23 8.3332,3.1e-4 16.49986,0.66698 24.5,2 8.33317,1.00031 15.99983,2.33364 23,4 6.99982,1.66697 13.16648,3.66697 18.5,6 5.66647,2.33363 10.16646,4.66696 13.5,7 l -13,34.5 c -6.66685,-3.99973 -15.83351,-7.99973 -27.5,-12 -11.66682,-3.99972 -24.66681,-5.99972 -39,-6 -15.00011,2.8e-4 -28.0001,3.83361 -39,11.5 -11.00008,7.33359 -16.50007,18.50025 -16.5,33.5 -7e-5,8.66689 1.49993,16.00022 4.5,22 3.33325,6.00021 7.66658,11.33353 13,16 5.66657,4.33353 12.16656,8.33352 19.5,12 7.33322,3.66685 15.33321,7.33351 24,11 12.66652,5.3335 24.16651,10.66683 34.5,16 10.66649,5.33349 19.66648,11.66681 27,19 7.66646,7.33346 13.49979,16.00012 17.5,26 4.33312,10.0001 6.49978,22.16676 6.5,36.5 -2.2e-4,27.00005 -9.16688,47.83336 -27.5,62.5 -18.00017,14.33333 -44.00015,21.49999 -78,21.5 -11.0001,-10e-6 -21.33343,-0.83334 -31,-2.5 -9.66674,-1.33334 -18.3334,-3.16667 -26,-5.5 -7.33338,-2.33333 -13.83338,-4.66666 -19.5,-7 -5.6667,-2.33332 -10.00003,-4.49999 -13,-6.5 l 12.5,-34 c 6.66662,3.66671 16.49995,8.00004 29.5,13 12.99992,4.6667 28.83324,7.00003 47.5,7"
         style="font-size:500px;-inkscape-font-specification:Ubuntu Mono"
         id="path3056" />
    </g>
  </g>
  <g
     style="display:none"
     inkscape:label="upper copy"
     inkscape:groupmode="layer"
     id="g3079"
     transform="translate(0,-540.36218)"
     sodipodi:insensitive="true">
    <g
       clip-path="url(#clipPath3034)"
       style="font-size:100px;font-style:normal;font-variant:normal;font-weight:normal;font-stretch:normal;line-height:125%;letter-spacing:0px;word-spacing:0px;fill:#000000;fill-opacity:1;stroke:none;font-family:Ubuntu Mono;-inkscape-font-specification:Ubuntu Mono"
       id="g3081">
      <path
         clip-path="url(#clipPath3020)"
         inkscape:connector-curvature="0"
         d="m 248.42857,917.64789 c 20.99987,3e-5 36.99985,-3.99997 48,-12 10.99983,-7.99995 16.49982,-19.99994 16.5,-36 -1.8e-4,-9.66658 -2.00018,-17.83324 -6,-24.5 -4.00017,-6.99989 -9.3335,-12.99989 -16,-18 -6.66682,-5.33321 -14.16681,-9.83321 -22.5,-13.5 -8.33346,-3.99986 -16.83345,-7.66653 -25.5,-11 -10.0001,-3.99985 -19.66675,-8.49985 -29,-13.5 -9.00007,-4.99984 -17.16673,-10.83317 -24.5,-17.5 -7.00005,-6.66649 -12.66671,-14.49981 -17,-23.5 -4.00003,-8.99979 -6.00003,-19.66645 -6,-32 -3e-5,-26.99974 8.49996,-47.99972 25.5,-63 16.99993,-15.33303 40.66657,-22.99969 71,-23 8.3332,3.1e-4 16.49986,0.66698 24.5,2 8.33317,1.00031 15.99983,2.33364 23,4 6.99982,1.66697 13.16648,3.66697 18.5,6 5.66647,2.33363 10.16646,4.66696 13.5,7 l -13,34.5 c -6.66685,-3.99973 -15.83351,-7.99973 -27.5,-12 -11.66682,-3.99972 -24.66681,-5.99972 -39,-6 -15.00011,2.8e-4 -28.0001,3.83361 -39,11.5 -11.00008,7.33359 -16.50007,18.50025 -16.5,33.5 -7e-5,8.66689 1.49993,16.00022 4.5,22 3.33325,6.00021 7.66658,11.33353 13,16 5.66657,4.33353 12.16656,8.33352 19.5,12 7.33322,3.66685 15.33321,7.33351 24,11 12.66652,5.3335 24.16651,10.66683 34.5,16 10.66649,5.33349 19.66648,11.66681 27,19 7.66646,7.33346 13.49979,16.00012 17.5,26 4.33312,10.0001 6.49978,22.16676 6.5,36.5 -2.2e-4,27.00005 -9.16688,47.83336 -27.5,62.5 -18.00017,14.33333 -44.00015,21.49999 -78,21.5 -11.0001,-10e-6 -21.33343,-0.83334 -31,-2.5 -9.66674,-1.33334 -18.3334,-3.16667 -26,-5.5 -7.33338,-2.33333 -13.83338,-4.66666 -19.5,-7 -5.6667,-2.33332 -10.00003,-4.49999 -13,-6.5 l 12.5,-34 c 6.66662,3.66671 16.49995,8.00004 29.5,13 12.99992,4.6667 28.83324,7.00003 47.5,7"
         style="font-size:500px;-inkscape-font-specification:Ubuntu Mono"
         id="path3083" />
    </g>
    <rect
       transform="matrix(0.88674406,-0.46226072,0.46226072,0.88674406,0,0)"
       rx="1.5062697"
       y="593.98016"
       x="-255.4035"
       height="225.71428"
       width="277.14285"
       id="rect3085"
       style="fill:#ff0000;fill-opacity:1;fill-rule:nonzero;stroke:none" />
  </g>
  <g
     style="display:none"
     transform="translate(0,-540.36218)"
     id="g3091"
     inkscape:groupmode="layer"
     inkscape:label="lower copy"
     sodipodi:insensitive="true">
    <g
       clip-path="url(#clipPath3014)"
       id="g3093"
       style="font-size:100px;font-style:normal;font-variant:normal;font-weight:normal;font-stretch:normal;line-height:125%;letter-spacing:0px;word-spacing:0px;fill:#000000;fill-opacity:1;stroke:none;font-family:Ubuntu Mono;-inkscape-font-specification:Ubuntu Mono">
      <path
         inkscape:connector-curvature="0"
         id="path3095"
         style="font-size:500px;-inkscape-font-specification:Ubuntu Mono"
         d="m 248.42857,917.64789 c 20.99987,3e-5 36.99985,-3.99997 48,-12 10.99983,-7.99995 16.49982,-19.99994 16.5,-36 -1.8e-4,-9.66658 -2.00018,-17.83324 -6,-24.5 -4.00017,-6.99989 -9.3335,-12.99989 -16,-18 -6.66682,-5.33321 -14.16681,-9.83321 -22.5,-13.5 -8.33346,-3.99986 -16.83345,-7.66653 -25.5,-11 -10.0001,-3.99985 -19.66675,-8.49985 -29,-13.5 -9.00007,-4.99984 -17.16673,-10.83317 -24.5,-17.5 -7.00005,-6.66649 -12.66671,-14.49981 -17,-23.5 -4.00003,-8.99979 -6.00003,-19.66645 -6,-32 -3e-5,-26.99974 8.49996,-47.99972 25.5,-63 16.99993,-15.33303 40.66657,-22.99969 71,-23 8.3332,3.1e-4 16.49986,0.66698 24.5,2 8.33317,1.00031 15.99983,2.33364 23,4 6.99982,1.66697 13.16648,3.66697 18.5,6 5.66647,2.33363 10.16646,4.66696 13.5,7 l -13,34.5 c -6.66685,-3.99973 -15.83351,-7.99973 -27.5,-12 -11.66682,-3.99972 -24.66681,-5.99972 -39,-6 -15.00011,2.8e-4 -28.0001,3.83361 -39,11.5 -11.00008,7.33359 -16.50007,18.50025 -16.5,33.5 -7e-5,8.66689 1.49993,16.00022 4.5,22 3.33325,6.00021 7.66658,11.33353 13,16 5.66657,4.33353 12.16656,8.33352 19.5,12 7.33322,3.66685 15.33321,7.33351 24,11 12.66652,5.3335 24.16651,10.66683 34.5,16 10.66649,5.33349 19.66648,11.66681 27,19 7.66646,7.33346 13.49979,16.00012 17.5,26 4.33312,10.0001 6.49978,22.16676 6.5,36.5 -2.2e-4,27.00005 -9.16688,47.83336 -27.5,62.5 -18.00017,14.33333 -44.00015,21.49999 -78,21.5 -11.0001,-10e-6 -21.33343,-0.83334 -31,-2.5 -9.66674,-1.33334 -18.3334,-3.16667 -26,-5.5 -7.33338,-2.33333 -13.83338,-4.66666 -19.5,-7 -5.6667,-2.33332 -10.00003,-4.49999 -13,-6.5 l 12.5,-34 c 6.66662,3.66671 16.49995,8.00004 29.5,13 12.99992,4.6667 28.83324,7.00003 47.5,7" />
    </g>
  </g>
  <g
     transform="translate(0,-540.36218)"
     id="g2992"
     inkscape:groupmode="layer"
     inkscape:label="back"
     style="display:inline" />
  <g
     inkscape:label="lower"
     inkscape:groupmode="layer"
     id="layer1"
     transform="translate(0,-540.36218)"
     style="display:inline" />
  <g
     transform="translate(0,-540.36218)"
     id="g2998"
     inkscape:groupmode="layer"
     inkscape:label="upper"
     style="display:inline">
    <g
       id="g3021"
       transform="matrix(1.876274,0,0,1.558929,-225.13026,-437.76067)">
      <g
         style="font-size:100px;font-style:normal;font-variant:normal;font-weight:normal;font-stretch:normal;line-height:125%;letter-spacing:0px;word-spacing:0px;fill:#d62828;fill-opacity:1;stroke:#003049;stroke-width:1.5;stroke-linejoin:round;stroke-miterlimit:4;stroke-opacity:1;stroke-dasharray:none;display:inline;font-family:Ubuntu Mono;-inkscape-font-specification:Ubuntu Mono"
         id="g2994">
        <path
           inkscape:connector-curvature="0"
           d="m 248.42857,917.64789 c 20.99987,3e-5 36.99985,-3.99997 48,-12 10.99983,-7.99995 16.49982,-19.99994 16.5,-36 -1.8e-4,-9.66658 -2.00018,-17.83324 -6,-24.5 -4.00017,-6.99989 -9.3335,-12.99989 -16,-18 -6.66682,-5.33321 -14.16681,-9.83321 -22.5,-13.5 -8.33346,-3.99986 -16.83345,-7.66653 -25.5,-11 -10.0001,-3.99985 -19.66675,-8.49985 -29,-13.5 -9.00007,-4.99984 -17.16673,-10.83317 -24.5,-17.5 -7.00005,-6.66649 -12.66671,-14.49981 -17,-23.5 -4.00003,-8.99979 -6.00003,-19.66645 -6,-32 -3e-5,-26.99974 8.49996,-47.99972 25.5,-63 16.99993,-15.33303 40.66657,-22.99969 71,-23 8.3332,3.1e-4 16.49986,0.66698 24.5,2 8.33317,1.00031 15.99983,2.33364 23,4 6.99982,1.66697 13.16648,3.66697 18.5,6 5.66647,2.33363 10.16646,4.66696 13.5,7 l -13,34.5 c -6.66685,-3.99973 -15.83351,-7.99973 -27.5,-12 -11.66682,-3.99972 -24.66681,-5.99972 -39,-6 -15.00011,2.8e-4 -28.0001,3.83361 -39,11.5 -11.00008,7.33359 -16.50007,18.50025 -16.5,33.5 -7e-5,8.66689 1.49993,16.00022 4.5,22 3.33325,6.00021 7.66658,11.33353 13,16 5.66657,4.33353 12.16656,8.33352 19.5,12 7.33322,3.66685 15.33321,7.33351 24,11 12.66652,5.3335 24.16651,10.66683 34.5,16 10.66649,5.33349 19.66648,11.66681 27,19 7.66646,7.33346 13.49979,16.00012 17.5,26 4.33312,10.0001 6.49978,22.16676 6.5,36.5 -2.2e-4,27.00005 -9.16688,47.83336 -27.5,62.5 -18.00017,14.33333 -44.00015,21.49999 -78,21.5 -11.0001,-10e-6 -21.33343,-0.83334 -31,-2.5 -9.66674,-1.33334 -18.3334,-3.16667 -26,-5.5 -7.33338,-2.33333 -13.83338,-4.66666 -19.5,-7 -5.6667,-2.33332 -10.00003,-4.49999 -13,-6.5 l 12.5,-34 c 6.66662,3.66671 16.49995,8.00004 29.5,13 12.99992,4.6667 28.83324,7.00003 47.5,7"
           style="font-size:500px;fill:#d62828;fill-opacity:1;stroke:#003049;stroke-width:1.5;stroke-linejoin:round;stroke-miterlimit:4;stroke-opacity:1;stroke-dasharray:none;-inkscape-font-specification:Ubuntu Mono"
           id="path2996" />
      </g>
      <g
         clip-path="url(#clipPath3014)"
         id="text2985"
         style="font-size:100px;font-style:normal;font-variant:normal;font-weight:normal;font-stretch:normal;line-height:125%;letter-spacing:0px;word-spacing:0px;fill:#003049;fill-opacity:1;stroke:none;display:inline;font-family:Ubuntu Mono;-inkscape-font-specification:Ubuntu Mono">
        <path
           inkscape:connector-curvature="0"
           id="path2990"
           style="font-size:500px;fill:#003049;fill-opacity:1;-inkscape-font-specification:Ubuntu Mono"
           d="m 248.42857,917.64789 c 20.99987,3e-5 36.99985,-3.99997 48,-12 10.99983,-7.99995 16.49982,-19.99994 16.5,-36 -1.8e-4,-9.66658 -2.00018,-17.83324 -6,-24.5 -4.00017,-6.99989 -9.3335,-12.99989 -16,-18 -6.66682,-5.33321 -14.16681,-9.83321 -22.5,-13.5 -8.33346,-3.99986 -16.83345,-7.66653 -25.5,-11 -10.0001,-3.99985 -19.66675,-8.49985 -29,-13.5 -9.00007,-4.99984 -17.16673,-10.83317 -24.5,-17.5 -7.00005,-6.66649 -12.66671,-14.49981 -17,-23.5 -4.00003,-8.99979 -6.00003,-19.66645 -6,-32 -3e-5,-26.99974 8.49996,-47.99972 25.5,-63 16.99993,-15.33303 40.66657,-22.99969 71,-23 8.3332,3.1e-4 16.49986,0.66698 24.5,2 8.33317,1.00031 15.99983,2.33364 23,4 6.99982,1.66697 13.16648,3.66697 18.5,6 5.66647,2.33363 10.16646,4.66696 13.5,7 l -13,34.5 c -6.66685,-3.99973 -15.83351,-7.99973 -27.5,-12 -11.66682,-3.99972 -24.66681,-5.99972 -39,-6 -15.00011,2.8e-4 -28.0001,3.83361 -39,11.5 -11.00008,7.33359 -16.50007,18.50025 -16.5,33.5 -7e-5,8.66689 1.49993,16.00022 4.5,22 3.33325,6.00021 7.66658,11.33353 13,16 5.66657,4.33353 12.16656,8.33352 19.5,12 7.33322,3.66685 15.33321,7.33351 24,11 12.66652,5.3335 24.16651,10.66683 34.5,16 10.66649,5.33349 19.66648,11.66681 27,19 7.66646,7.33346 13.49979,16.00012 17.5,26 4.33312,10.0001 6.49978,22.16676 6.5,36.5 -2.2e-4,27.00005 -9.16688,47.83336 -27.5,62.5 -18.00017,14.33333 -44.00015,21.49999 -78,21.5 -11.0001,-10e-6 -21.33343,-0.83334 -31,-2.5 -9.66674,-1.33334 -18.3334,-3.16667 -26,-5.5 -7.33338,-2.33333 -13.83338,-4.66666 -19.5,-7 -5.6667,-2.33332 -10.00003,-4.49999 -13,-6.5 l 12.5,-34 c 6.66662,3.66671 16.49995,8.00004 29.5,13 12.99992,4.6667 28.83324,7.00003 47.5,7" />
      </g>
      <g
         clip-path="url(#clipPath3875)"
         style="font-size:100px;font-style:normal;font-variant:normal;font-weight:normal;font-stretch:normal;line-height:125%;letter-spacing:0px;word-spacing:0px;fill:#003049;fill-opacity:1;stroke:none;font-family:Ubuntu Mono;-inkscape-font-specification:Ubuntu Mono"
         id="g3000">
        <path
           clip-path="url(#clipPath3020)"
           inkscape:connector-curvature="0"
           d="m 248.42857,917.64789 c 20.99987,3e-5 36.99985,-3.99997 48,-12 10.99983,-7.99995 16.49982,-19.99994 16.5,-36 -1.8e-4,-9.66658 -2.00018,-17.83324 -6,-24.5 -4.00017,-6.99989 -9.3335,-12.99989 -16,-18 -6.66682,-5.33321 -14.16681,-9.83321 -22.5,-13.5 -8.33346,-3.99986 -16.83345,-7.66653 -25.5,-11 -10.0001,-3.99985 -19.66675,-8.49985 -29,-13.5 -9.00007,-4.99984 -17.16673,-10.83317 -24.5,-17.5 -7.00005,-6.66649 -12.66671,-14.49981 -17,-23.5 -4.00003,-8.99979 -6.00003,-19.66645 -6,-32 -3e-5,-26.99974 8.49996,-47.99972 25.5,-63 16.99993,-15.33303 40.66657,-22.99969 71,-23 8.3332,3.1e-4 16.49986,0.66698 24.5,2 8.33317,1.00031 15.99983,2.33364 23,4 6.99982,1.66697 13.16648,3.66697 18.5,6 5.66647,2.33363 10.16646,4.66696 13.5,7 l -13,34.5 c -6.66685,-3.99973 -15.83351,-7.99973 -27.5,-12 -11.66682,-3.99972 -24.66681,-5.99972 -39,-6 -15.00011,2.8e-4 -28.0001,3.83361 -39,11.5 -11.00008,7.33359 -16.50007,18.50025 -16.5,33.5 -7e-5,8.66689 1.49993,16.00022 4.5,22 3.33325,6.00021 7.66658,11.33353 13,16 5.66657,4.33353 12.16656,8.33352 19.5,12 7.33322,3.66685 15.33321,7.33351 24,11 12.66652,5.3335 24.16651,10.66683 34.5,16 10.66649,5.33349 19.66648,11.66681 27,19 7.66646,7.33346 13.49979,16.00012 17.5,26 4.33312,10.0001 6.49978,22.16676 6.5,36.5 -2.2e-4,27.00005 -9.16688,47.83336 -27.5,62.5 -18.00017,14.33333 -44.00015,21.49999 -78,21.5 -11.0001,-10e-6 -21.33343,-0.83334 -31,-2.5 -9.66674,-1.33334 -18.3334,-3.16667 -26,-5.5 -7.33338,-2.33333 -13.83338,-4.66666 -19.5,-7 -5.6667,-2.33332 -10.00003,-4.49999 -13,-6.5 l 12.5,-34 c 6.66662,3.66671 16.49995,8.00004 29.5,13 12.99992,4.6667 28.83324,7.00003 47.5,7"
           style="font-size:500px;fill:#003049;fill-opacity:1;-inkscape-font-specification:Ubuntu Mono"
           id="path3002" />
      </g>
    </g>
  </g>
</svg>
